# xmcd CD database file generated by Grip 2.96
# 
# Track frame offsets:
#       150
#       11881
#       25820
#       37413
#       49846
#       62358
#       75533
#       86775
#       102086
#       117144
#       131850
#       145349
#       164552
# 
# Disc length: 2317 seconds
# 
# Revision: 0
# Processed by: cddbd v1.4PL0 Copyright (c) Steve Scherf et al.
# Submitted via: Grip 2.96
# 
DISCID=b3090b0d
DTITLE=Wes Thibodeaux and The Cajan Travelers - Almost Live
DYEAR=1900
DGENRE=
TTITLE0=Bayou Pom Pom
TTITLE1=Big Mamou
TTITLE2=Lets Dance
TTITLE3=99 Year Waltz
TTITLE4=I Went To The Dance
TTITLE5=Dreamer
TTITLE6=Gildeaux
TTITLE7=Cajun Girl
TTITLE8=I Went Through The Back Door
TTITLE9=Walker's Dream
TTITLE10=Mini Skirt
TTITLE11=Zydeco A Pas Sale
TTITLE12=Poor Man's Two Step
EXTD=
EXTT0=
EXTT1=
EXTT2=
EXTT3=
EXTT4=
EXTT5=
EXTT6=
EXTT7=
EXTT8=
EXTT9=
EXTT10=
EXTT11=
EXTT12=
PLAYORDER=
